<svg width="32" height="32" viewBox="0 0 32 32" fill="none" xmlns="http://www.w3.org/2000/svg">
  <!-- Background Circle -->
  <circle cx="16" cy="16" r="15" fill="#34C759" stroke="#2D7D32" stroke-width="2"/>
  
  <!-- Text Symbol -->
  <rect x="8" y="10" width="16" height="2" rx="1" fill="white"/>
  <rect x="8" y="14" width="12" height="2" rx="1" fill="white"/>
  <rect x="8" y="18" width="14" height="2" rx="1" fill="white"/>
  
  <!-- Pencil Icon -->
  <path d="M20 8L24 12L14 22L10 22L10 18L20 8Z" fill="white"/>
  <path d="M20 8L22 6C22.5523 6 23 6.44772 23 7V7C23 7.55228 22.5523 8 22 8L20 8Z" fill="#FFD60A"/>
  
  <!-- Japanese Brackets Accent -->
  <path d="M6 12C6 11.4477 6.44772 11 7 11C7.55228 11 8 11.4477 8 12V20C8 20.5523 7.55228 21 7 21C6.44772 21 6 20.5523 6 20V12Z" fill="white" opacity="0.8"/>
  <path d="M24 12C24 11.4477 24.4477 11 25 11C25.5523 11 26 11.4477 26 12V20C26 20.5523 25.5523 21 25 21C24.4477 21 24 20.5523 24 20V12Z" fill="white" opacity="0.8"/>
</svg>